<svg xmlns="http://www.w3.org/2000/svg" width="96" height="96" viewBox="0 0 96 96" version="1.1">
	<path d="M 27.818 13.042 C 25.474 14.410, 8 45.232, 8 48 C 8 50.941, 25.590 81.710, 28.013 83.007 C 30.440 84.306, 65.560 84.306, 67.987 83.007 C 70.410 81.710, 88 50.941, 88 48 C 88 45.059, 70.410 14.290, 67.987 12.993 C 65.580 11.705, 30.036 11.748, 27.818 13.042 M 24.140 34 L 16.121 48 24.140 62 L 32.159 76 48 76 L 63.841 76 71.860 62 L 79.879 48 71.860 34 L 63.841 20 48 20 L 32.159 20 24.140 34" stroke="none" fill="black" fill-rule="evenodd"/>
</svg>